<svg xmlns="http://www.w3.org/2000/svg" xmlns:xlink="http://www.w3.org/1999/xlink" version="1.1" width="1000" height="1000" viewBox="0 0 1000 1000" xml:space="preserve">
<desc>Created with Fabric.js 3.5.0</desc>
<defs>
</defs>
<rect x="0" y="0" width="100%" height="100%" fill="rgba(255,255,255,0)"/>
<g transform="matrix(-1.1364 0 0 1.1364 500.0145 500.0145)" id="435099">
<g style="" vector-effect="non-scaling-stroke">
		<g transform="matrix(30.7692 0 0 30.7692 276.923 -0.0004)" id="Capa_1">
<path style="stroke: none; stroke-width: 1; stroke-dasharray: none; stroke-linecap: butt; stroke-dashoffset: 0; stroke-linejoin: miter; stroke-miterlimit: 4; is-custom-font: none; font-file-url: none; fill: rgb(3,1,4); fill-rule: nonzero; opacity: 1;" transform=" translate(-22, -13)" d="M 19.5 26 c -0.552 0 -1 -0.449 -1 -1 V 1 c 0 -0.551 0.448 -1 1 -1 h 5 c 0.551 0 1 0.449 1 1 v 24 c 0 0.551 -0.449 1 -1 1 H 19.5 z" stroke-linecap="round"/>
</g>
		<g transform="matrix(30.7692 0 0 30.7692 -0.0001 92.3074)" id="Capa_1">
<path style="stroke: none; stroke-width: 1; stroke-dasharray: none; stroke-linecap: butt; stroke-dashoffset: 0; stroke-linejoin: miter; stroke-miterlimit: 4; is-custom-font: none; font-file-url: none; fill: rgb(3,1,4); fill-rule: nonzero; opacity: 1;" transform=" translate(-13, -16)" d="M 10.5 26 c -0.552 0 -1 -0.449 -1 -1 V 7 c 0 -0.551 0.448 -1 1 -1 h 5 c 0.551 0 1 0.449 1 1 v 18 c 0 0.551 -0.449 1 -1 1 H 10.5 z" stroke-linecap="round"/>
</g>
		<g transform="matrix(30.7692 0 0 30.7692 -276.9232 184.6152)" id="Capa_1">
<path style="stroke: none; stroke-width: 1; stroke-dasharray: none; stroke-linecap: butt; stroke-dashoffset: 0; stroke-linejoin: miter; stroke-miterlimit: 4; is-custom-font: none; font-file-url: none; fill: rgb(3,1,4); fill-rule: nonzero; opacity: 1;" transform=" translate(-4, -19)" d="M 1.5 26 c -0.552 0 -1 -0.449 -1 -1 V 13 c 0 -0.551 0.448 -1 1 -1 h 5 c 0.551 0 1 0.449 1 1 v 12 c 0 0.551 -0.449 1 -1 1 H 1.5 z" stroke-linecap="round"/>
</g>
</g>
</g>
</svg>