<?xml version="1.0" encoding="iso-8859-1"?>
<!-- Uploaded to: SVG Repo, www.svgrepo.com, Generator: SVG Repo Mixer Tools -->
<svg height="800px" width="800px" version="1.1" id="Capa_1" xmlns="http://www.w3.org/2000/svg" xmlns:xlink="http://www.w3.org/1999/xlink" 
	 viewBox="0 0 26 26" xml:space="preserve">
<g>
	<g>
		<path style="fill:#030104;" d="M19.5,26c-0.552,0-1-0.449-1-1V1c0-0.551,0.448-1,1-1h5c0.551,0,1,0.449,1,1v24
			c0,0.551-0.449,1-1,1H19.5z"/>
	</g>
	<g>
		<path style="fill:#030104;" d="M10.5,26c-0.552,0-1-0.449-1-1V7c0-0.551,0.448-1,1-1h5c0.551,0,1,0.449,1,1v18
			c0,0.551-0.449,1-1,1H10.5z"/>
	</g>
	<g>
		<path style="fill:#030104;" d="M1.5,26c-0.552,0-1-0.449-1-1V13c0-0.551,0.448-1,1-1h5c0.551,0,1,0.449,1,1v12
			c0,0.551-0.449,1-1,1H1.5z"/>
	</g>
</g>
</svg>